<?xml version="1.0" standalone="no"?>
<!DOCTYPE svg PUBLIC "-//W3C//DTD SVG 20010904//EN"
 "http://www.w3.org/TR/2001/REC-SVG-20010904/DTD/svg10.dtd">
<svg version="1.0" xmlns="http://www.w3.org/2000/svg"
 width="512.000000pt" height="512.000000pt" viewBox="0 0 512.000000 512.000000"
 preserveAspectRatio="xMidYMid meet">
<metadata>
Created by potrace 1.11, written by Peter Selinger 2001-2013
</metadata>
<g transform="translate(0.000000,512.000000) scale(0.100000,-0.100000)"
fill="#000000" stroke="none">
<path d="M121 5016 c-53 -30 -50 119 -51 -2448 0 -1830 3 -2393 12 -2413 27
-59 -145 -55 2473 -55 2618 0 2446 -4 2473 55 9 20 12 583 12 2411 0 2595 4
2425 -55 2452 -40 19 -4830 17 -4864 -2z m2349 -2201 l0 -1305 593 -2 592 -3
3 -297 2 -298 -970 0 -970 0 0 1605 0 1605 375 0 375 0 0 -1305z"/>
</g>
</svg>
